<?xml version="1.0" encoding="iso-8859-1"?>
<!-- Uploaded to: SVG Repo, www.svgrepo.com, Generator: SVG Repo Mixer Tools -->
<!DOCTYPE svg PUBLIC "-//W3C//DTD SVG 1.1//EN" "http://www.w3.org/Graphics/SVG/1.1/DTD/svg11.dtd">
<svg version="1.1" id="Capa_1" xmlns="http://www.w3.org/2000/svg" xmlns:xlink="http://www.w3.org/1999/xlink" 
	 viewBox="0 0 297.5 297.5" xml:space="preserve">
<g>
	<g id="XMLID_27_">
		<g>
			<path style="fill:#16A085;" d="M241.91,248.3v15.92c0,7.31-5.95,13.26-13.27,13.26H128.16c-7.31,0-13.26-5.95-13.26-13.26V248.3
				H241.91z M196.69,263.15c0-5.46-4.43-9.88-9.89-9.88h-16.3c-5.46,0-9.89,4.42-9.89,9.88s4.43,9.89,9.89,9.89h16.3
				C192.26,273.04,196.69,268.61,196.69,263.15z"/>
			<rect x="114.9" y="199.4" style="fill:#BDC3C7;" width="127.01" height="29.19"/>
			<path style="fill:#BDC3C7;" d="M241.91,33.28v14.71H114.9V33.28c0-7.31,5.95-13.26,13.26-13.26h100.48
				C235.96,20.02,241.91,25.97,241.91,33.28z"/>
			<path style="fill:#99ABD5;" d="M241.91,123.69v55.95H62.95c-4.05,0-7.35-3.3-7.35-7.36v-48.59H241.91z"/>
			<path style="fill:#99ABD5;" d="M241.91,67.75v15.98H55.6v-8.62c0-4.06,3.3-7.36,7.35-7.36H241.91z"/>
			<path d="M261.67,33.28v230.94c0,18.21-14.81,33.03-33.03,33.03H128.16c-18.21,0-33.03-14.82-33.03-33.03V199.4H62.95
				c-14.95,0-27.12-12.16-27.12-27.12V75.11c0-14.96,12.17-27.12,27.12-27.12h32.18V33.28c0-18.21,14.82-33.03,33.03-33.03h100.48
				C246.86,0.25,261.67,15.07,261.67,33.28z M241.91,264.22V248.3H114.9v15.92c0,7.31,5.95,13.26,13.26,13.26h100.48
				C235.96,277.48,241.91,271.53,241.91,264.22z M241.91,228.59V199.4H114.9v29.19H241.91z M241.91,179.64v-55.95H55.6v48.59
				c0,4.06,3.3,7.36,7.35,7.36H241.91z M241.91,83.73V67.75H62.95c-4.05,0-7.35,3.3-7.35,7.36v8.62H241.91z M241.91,47.99V33.28
				c0-7.31-5.95-13.26-13.27-13.26H128.16c-7.31,0-13.26,5.95-13.26,13.26v14.71H241.91z"/>
			<path d="M186.8,253.27c5.46,0,9.89,4.42,9.89,9.88s-4.43,9.89-9.89,9.89h-16.3c-5.46,0-9.89-4.43-9.89-9.89s4.43-9.88,9.89-9.88
				H186.8z"/>
		</g>
		<g>
		</g>
	</g>
</g>
</svg>